<svg xmlns="http://www.w3.org/2000/svg" viewBox="0 0 900 900" width="900" height="900"><defs><linearGradient id="g" x1="0" y1="0" x2="1" y2="1"><stop offset="0" stop-color="#3F4F45"/><stop offset="1" stop-color="#161F1A"/></linearGradient><pattern id="grid" width="60" height="60" patternUnits="userSpaceOnUse"><path d="M60 0H0V60" fill="none" stroke="#fff" stroke-opacity="0.07"/></pattern></defs><rect width="900" height="900" fill="url(#g)"/><rect width="900" height="900" fill="url(#grid)"/><polygon points="310,180 590,180 640,260 590,340 310,340 260,260" fill="none" stroke="#9FD9B0" stroke-width="10"/><rect x="405" y="340" width="90" height="260" fill="#9FD9B0" fill-opacity="0.35"/><line x1="405" y1="360" x2="495" y2="370" stroke="#9FD9B0" stroke-width="4"/><line x1="405" y1="392" x2="495" y2="402" stroke="#9FD9B0" stroke-width="4"/><line x1="405" y1="424" x2="495" y2="434" stroke="#9FD9B0" stroke-width="4"/><line x1="405" y1="456" x2="495" y2="466" stroke="#9FD9B0" stroke-width="4"/><line x1="405" y1="488" x2="495" y2="498" stroke="#9FD9B0" stroke-width="4"/><line x1="405" y1="520" x2="495" y2="530" stroke="#9FD9B0" stroke-width="4"/><line x1="405" y1="552" x2="495" y2="562" stroke="#9FD9B0" stroke-width="4"/><line x1="405" y1="584" x2="495" y2="594" stroke="#9FD9B0" stroke-width="4"/><rect y="620" width="900" height="280" fill="#000" fill-opacity="0.35"/><text x="60" y="672" font-family="Helvetica, Arial, sans-serif" font-size="22" fill="#9FD9B0" letter-spacing="3">MATERIALS &amp; CONSUMABLES · RAW MATERIALS</text><text x="60" y="728" font-family="Helvetica, Arial, sans-serif" font-size="40" font-weight="bold" fill="#fff">Sanitary Flange</text><text x="60" y="868" font-family="Menlo, Consolas, monospace" font-size="22" fill="#fff" fill-opacity="0.7">PART 221000095447</text></svg>