<svg xmlns="http://www.w3.org/2000/svg" viewBox="0 0 900 900" width="900" height="900"><defs><linearGradient id="sky" x1="0" y1="0" x2="0" y2="1"><stop offset="0" stop-color="#F2A65A"/><stop offset="1" stop-color="#A8452F"/></linearGradient><linearGradient id="fade" x1="0" y1="0" x2="0" y2="1"><stop offset="0" stop-color="#000" stop-opacity="0"/><stop offset="1" stop-color="#000" stop-opacity="0.42"/></linearGradient></defs><rect width="900" height="900" fill="url(#sky)"/><circle cx="407" cy="298" r="66" fill="#FFDDA1" fill-opacity="0.55"/><rect x="-40" y="466" width="80" height="434" fill="#000" fill-opacity="0.24"/><rect x="-28" y="536" width="12" height="18" fill="#FFDDA1" fill-opacity="0.5"/><rect x="-28" y="578" width="12" height="18" fill="#FFDDA1" fill-opacity="0.5"/><rect x="-28" y="620" width="12" height="18" fill="#FFDDA1" fill-opacity="0.5"/><rect x="2" y="620" width="12" height="18" fill="#FFDDA1" fill-opacity="0.5"/><rect x="55" y="542" width="86" height="358" fill="#000" fill-opacity="0.23"/><rect x="67" y="570" width="12" height="18" fill="#FFDDA1" fill-opacity="0.5"/><rect x="97" y="570" width="12" height="18" fill="#FFDDA1" fill-opacity="0.5"/><rect x="97" y="612" width="12" height="18" fill="#FFDDA1" fill-opacity="0.5"/><rect x="67" y="696" width="12" height="18" fill="#FFDDA1" fill-opacity="0.5"/><rect x="67" y="738" width="12" height="18" fill="#FFDDA1" fill-opacity="0.5"/><rect x="67" y="780" width="12" height="18" fill="#FFDDA1" fill-opacity="0.5"/><rect x="160" y="309" width="109" height="591" fill="#000" fill-opacity="0.18"/><rect x="172" y="337" width="12" height="18" fill="#FFDDA1" fill-opacity="0.5"/><rect x="202" y="337" width="12" height="18" fill="#FFDDA1" fill-opacity="0.5"/><rect x="202" y="463" width="12" height="18" fill="#FFDDA1" fill-opacity="0.5"/><rect x="172" y="505" width="12" height="18" fill="#FFDDA1" fill-opacity="0.5"/><rect x="280" y="427" width="122" height="473" fill="#000" fill-opacity="0.29"/><rect x="292" y="455" width="12" height="18" fill="#FFDDA1" fill-opacity="0.5"/><rect x="322" y="455" width="12" height="18" fill="#FFDDA1" fill-opacity="0.5"/><rect x="322" y="497" width="12" height="18" fill="#FFDDA1" fill-opacity="0.5"/><rect x="352" y="497" width="12" height="18" fill="#FFDDA1" fill-opacity="0.5"/><rect x="322" y="539" width="12" height="18" fill="#FFDDA1" fill-opacity="0.5"/><rect x="424" y="447" width="85" height="453" fill="#000" fill-opacity="0.16"/><rect x="436" y="475" width="12" height="18" fill="#FFDDA1" fill-opacity="0.5"/><rect x="436" y="517" width="12" height="18" fill="#FFDDA1" fill-opacity="0.5"/><rect x="466" y="517" width="12" height="18" fill="#FFDDA1" fill-opacity="0.5"/><rect x="436" y="559" width="12" height="18" fill="#FFDDA1" fill-opacity="0.5"/><rect x="436" y="643" width="12" height="18" fill="#FFDDA1" fill-opacity="0.5"/><rect x="466" y="643" width="12" height="18" fill="#FFDDA1" fill-opacity="0.5"/><rect x="466" y="685" width="12" height="18" fill="#FFDDA1" fill-opacity="0.5"/><rect x="466" y="727" width="12" height="18" fill="#FFDDA1" fill-opacity="0.5"/><rect x="517" y="347" width="101" height="553" fill="#000" fill-opacity="0.20"/><rect x="559" y="375" width="12" height="18" fill="#FFDDA1" fill-opacity="0.5"/><rect x="559" y="417" width="12" height="18" fill="#FFDDA1" fill-opacity="0.5"/><rect x="628" y="479" width="53" height="421" fill="#000" fill-opacity="0.33"/><rect x="640" y="549" width="12" height="18" fill="#FFDDA1" fill-opacity="0.5"/><rect x="640" y="591" width="12" height="18" fill="#FFDDA1" fill-opacity="0.5"/><rect x="695" y="396" width="68" height="504" fill="#000" fill-opacity="0.27"/><rect x="737" y="508" width="12" height="18" fill="#FFDDA1" fill-opacity="0.5"/><rect x="780" y="467" width="100" height="433" fill="#000" fill-opacity="0.16"/><rect x="792" y="495" width="12" height="18" fill="#FFDDA1" fill-opacity="0.5"/><rect x="822" y="495" width="12" height="18" fill="#FFDDA1" fill-opacity="0.5"/><rect x="792" y="537" width="12" height="18" fill="#FFDDA1" fill-opacity="0.5"/><rect x="792" y="579" width="12" height="18" fill="#FFDDA1" fill-opacity="0.5"/><rect x="792" y="705" width="12" height="18" fill="#FFDDA1" fill-opacity="0.5"/><rect x="822" y="705" width="12" height="18" fill="#FFDDA1" fill-opacity="0.5"/><rect x="900" y="463" width="97" height="437" fill="#000" fill-opacity="0.20"/><rect x="942" y="533" width="12" height="18" fill="#FFDDA1" fill-opacity="0.5"/><rect x="942" y="575" width="12" height="18" fill="#FFDDA1" fill-opacity="0.5"/><rect x="912" y="617" width="12" height="18" fill="#FFDDA1" fill-opacity="0.5"/><rect x="942" y="659" width="12" height="18" fill="#FFDDA1" fill-opacity="0.5"/><rect y="570" width="900" height="330" fill="url(#fade)"/><text x="60" y="782" font-family="Georgia, serif" font-size="62" fill="#fff">Marrakesh</text><text x="62" y="832" font-family="Helvetica, Arial, sans-serif" font-size="24" fill="#fff" fill-opacity="0.78" letter-spacing="3">MOROCCO</text></svg>